<?xml version="1.0" encoding="UTF-8" standalone="no"?><!-- Generator: Gravit.io --><svg xmlns="http://www.w3.org/2000/svg" xmlns:xlink="http://www.w3.org/1999/xlink" style="isolation:isolate" viewBox="414.717 1148 200 200" width="200pt" height="200pt"><g style="isolation:isolate"><g><rect x="414.717" y="1148" width="200" height="200" transform="matrix(1,0,0,1,0,0)" fill="none"/><rect x="439.717" y="1160.583" width="150" height="150" transform="matrix(1,0,0,1,0,0)" fill="none"/><path d=" M 497.037 1337.873 L 497.037 1337.873 Q 494.637 1337.873 493.657 1336.443 L 493.657 1336.443 L 493.657 1336.443 Q 492.677 1335.013 492.677 1332.493 L 492.677 1332.493 L 492.677 1326.773 L 492.677 1326.773 Q 492.677 1324.113 493.637 1322.733 L 493.637 1322.733 L 493.637 1322.733 Q 494.597 1321.353 497.037 1321.353 L 497.037 1321.353 L 497.037 1321.353 Q 499.217 1321.353 500.167 1322.533 L 500.167 1322.533 L 500.167 1322.533 Q 501.117 1323.713 501.117 1326.013 L 501.117 1326.013 L 501.117 1327.293 L 498.977 1327.293 L 498.977 1326.153 L 498.977 1326.153 Q 498.977 1325.033 498.877 1324.433 L 498.877 1324.433 L 498.877 1324.433 Q 498.777 1323.833 498.367 1323.473 L 498.367 1323.473 L 498.367 1323.473 Q 497.957 1323.113 497.057 1323.113 L 497.057 1323.113 L 497.057 1323.113 Q 496.137 1323.113 495.687 1323.503 L 495.687 1323.503 L 495.687 1323.503 Q 495.237 1323.893 495.097 1324.583 L 495.097 1324.583 L 495.097 1324.583 Q 494.957 1325.273 494.957 1326.433 L 494.957 1326.433 L 494.957 1332.853 L 494.957 1332.853 Q 494.957 1334.093 495.157 1334.793 L 495.157 1334.793 L 495.157 1334.793 Q 495.357 1335.493 495.807 1335.793 L 495.807 1335.793 L 495.807 1335.793 Q 496.257 1336.093 497.057 1336.093 L 497.057 1336.093 L 497.057 1336.093 Q 497.917 1336.093 498.337 1335.713 L 498.337 1335.713 L 498.337 1335.713 Q 498.757 1335.333 498.867 1334.673 L 498.867 1334.673 L 498.867 1334.673 Q 498.977 1334.013 498.977 1332.873 L 498.977 1332.873 L 498.977 1331.673 L 501.117 1331.673 L 501.117 1332.873 L 501.117 1332.873 Q 501.117 1335.293 500.207 1336.583 L 500.207 1336.583 L 500.207 1336.583 Q 499.297 1337.873 497.037 1337.873 L 497.037 1337.873 L 497.037 1337.873 Z  M 507.097 1337.873 L 507.097 1337.873 Q 505.057 1337.873 503.987 1336.613 L 503.987 1336.613 L 503.987 1336.613 Q 502.917 1335.353 502.797 1333.153 L 502.797 1333.153 L 504.797 1332.613 L 504.797 1332.613 Q 504.897 1334.173 505.407 1335.133 L 505.407 1335.133 L 505.407 1335.133 Q 505.917 1336.093 507.097 1336.093 L 507.097 1336.093 L 507.097 1336.093 Q 507.977 1336.093 508.427 1335.603 L 508.427 1335.603 L 508.427 1335.603 Q 508.877 1335.113 508.877 1334.193 L 508.877 1334.193 L 508.877 1334.193 Q 508.877 1333.193 508.457 1332.533 L 508.457 1332.533 L 508.457 1332.533 Q 508.037 1331.873 507.117 1331.073 L 507.117 1331.073 L 504.397 1328.673 L 504.397 1328.673 Q 503.577 1327.953 503.207 1327.123 L 503.207 1327.123 L 503.207 1327.123 Q 502.837 1326.293 502.837 1325.093 L 502.837 1325.093 L 502.837 1325.093 Q 502.837 1323.313 503.857 1322.333 L 503.857 1322.333 L 503.857 1322.333 Q 504.877 1321.353 506.637 1321.353 L 506.637 1321.353 L 506.637 1321.353 Q 508.557 1321.353 509.537 1322.373 L 509.537 1322.373 L 509.537 1322.373 Q 510.517 1323.393 510.717 1325.533 L 510.717 1325.533 L 508.797 1326.053 L 508.797 1326.053 Q 508.697 1324.633 508.247 1323.863 L 508.247 1323.863 L 508.247 1323.863 Q 507.797 1323.093 506.637 1323.093 L 506.637 1323.093 L 506.637 1323.093 Q 505.777 1323.093 505.317 1323.543 L 505.317 1323.543 L 505.317 1323.543 Q 504.857 1323.993 504.857 1324.873 L 504.857 1324.873 L 504.857 1324.873 Q 504.857 1325.593 505.097 1326.083 L 505.097 1326.083 L 505.097 1326.083 Q 505.337 1326.573 505.917 1327.073 L 505.917 1327.073 L 508.657 1329.473 L 508.657 1329.473 Q 509.717 1330.413 510.347 1331.513 L 510.347 1331.513 L 510.347 1331.513 Q 510.977 1332.613 510.977 1334.013 L 510.977 1334.013 L 510.977 1334.013 Q 510.977 1335.793 509.897 1336.833 L 509.897 1336.833 L 509.897 1336.833 Q 508.817 1337.873 507.097 1337.873 L 507.097 1337.873 L 507.097 1337.873 Z  M 516.557 1337.873 L 516.557 1337.873 Q 514.517 1337.873 513.447 1336.613 L 513.447 1336.613 L 513.447 1336.613 Q 512.377 1335.353 512.257 1333.153 L 512.257 1333.153 L 514.257 1332.613 L 514.257 1332.613 Q 514.357 1334.173 514.867 1335.133 L 514.867 1335.133 L 514.867 1335.133 Q 515.377 1336.093 516.557 1336.093 L 516.557 1336.093 L 516.557 1336.093 Q 517.437 1336.093 517.887 1335.603 L 517.887 1335.603 L 517.887 1335.603 Q 518.337 1335.113 518.337 1334.193 L 518.337 1334.193 L 518.337 1334.193 Q 518.337 1333.193 517.917 1332.533 L 517.917 1332.533 L 517.917 1332.533 Q 517.497 1331.873 516.577 1331.073 L 516.577 1331.073 L 513.857 1328.673 L 513.857 1328.673 Q 513.037 1327.953 512.667 1327.123 L 512.667 1327.123 L 512.667 1327.123 Q 512.297 1326.293 512.297 1325.093 L 512.297 1325.093 L 512.297 1325.093 Q 512.297 1323.313 513.317 1322.333 L 513.317 1322.333 L 513.317 1322.333 Q 514.337 1321.353 516.097 1321.353 L 516.097 1321.353 L 516.097 1321.353 Q 518.017 1321.353 518.997 1322.373 L 518.997 1322.373 L 518.997 1322.373 Q 519.977 1323.393 520.177 1325.533 L 520.177 1325.533 L 518.257 1326.053 L 518.257 1326.053 Q 518.157 1324.633 517.707 1323.863 L 517.707 1323.863 L 517.707 1323.863 Q 517.257 1323.093 516.097 1323.093 L 516.097 1323.093 L 516.097 1323.093 Q 515.237 1323.093 514.777 1323.543 L 514.777 1323.543 L 514.777 1323.543 Q 514.317 1323.993 514.317 1324.873 L 514.317 1324.873 L 514.317 1324.873 Q 514.317 1325.593 514.557 1326.083 L 514.557 1326.083 L 514.557 1326.083 Q 514.797 1326.573 515.377 1327.073 L 515.377 1327.073 L 518.117 1329.473 L 518.117 1329.473 Q 519.177 1330.413 519.807 1331.513 L 519.807 1331.513 L 519.807 1331.513 Q 520.437 1332.613 520.437 1334.013 L 520.437 1334.013 L 520.437 1334.013 Q 520.437 1335.793 519.357 1336.833 L 519.357 1336.833 L 519.357 1336.833 Q 518.277 1337.873 516.557 1337.873 L 516.557 1337.873 L 516.557 1337.873 Z  M 525.697 1337.873 L 525.697 1337.873 Q 523.757 1337.873 522.747 1336.783 L 522.747 1336.783 L 522.747 1336.783 Q 521.737 1335.693 521.737 1333.713 L 521.737 1333.713 L 521.737 1333.173 L 523.857 1333.173 L 523.857 1333.533 L 523.857 1333.533 Q 523.897 1334.773 524.287 1335.433 L 524.287 1335.433 L 524.287 1335.433 Q 524.677 1336.093 525.697 1336.093 L 525.697 1336.093 L 525.697 1336.093 Q 526.777 1336.093 527.167 1335.343 L 527.167 1335.343 L 527.167 1335.343 Q 527.557 1334.593 527.557 1333.113 L 527.557 1333.113 L 527.557 1333.113 Q 527.557 1331.753 527.057 1330.983 L 527.057 1330.983 L 527.057 1330.983 Q 526.557 1330.213 525.437 1330.133 L 525.437 1330.133 L 525.437 1330.133 Q 525.357 1330.113 525.137 1330.113 L 525.137 1330.113 L 525.137 1327.973 L 525.417 1327.973 L 525.417 1327.973 Q 526.557 1327.933 527.057 1327.373 L 527.057 1327.373 L 527.057 1327.373 Q 527.557 1326.813 527.557 1325.513 L 527.557 1325.513 L 527.557 1325.513 Q 527.557 1324.313 527.157 1323.703 L 527.157 1323.703 L 527.157 1323.703 Q 526.757 1323.093 525.717 1323.093 L 525.717 1323.093 L 525.717 1323.093 Q 524.677 1323.093 524.287 1323.753 L 524.287 1323.753 L 524.287 1323.753 Q 523.897 1324.413 523.857 1325.693 L 523.857 1325.693 L 523.857 1326.033 L 521.737 1326.033 L 521.737 1325.493 L 521.737 1325.493 Q 521.737 1323.513 522.747 1322.433 L 522.747 1322.433 L 522.747 1322.433 Q 523.757 1321.353 525.717 1321.353 L 525.717 1321.353 L 525.717 1321.353 Q 527.677 1321.353 528.687 1322.443 L 528.687 1322.443 L 528.687 1322.443 Q 529.697 1323.533 529.697 1325.513 L 529.697 1325.513 L 529.697 1325.513 Q 529.697 1326.933 529.077 1327.833 L 529.077 1327.833 L 529.077 1327.833 Q 528.457 1328.733 527.377 1329.053 L 527.377 1329.053 L 527.377 1329.053 Q 528.477 1329.393 529.087 1330.433 L 529.087 1330.433 L 529.087 1330.433 Q 529.697 1331.473 529.697 1333.113 L 529.697 1333.113 L 529.697 1333.113 Q 529.697 1335.373 528.727 1336.623 L 528.727 1336.623 L 528.727 1336.623 Q 527.757 1337.873 525.697 1337.873 L 525.697 1337.873 L 525.697 1337.873 Z " fill="rgb(255,255,255)"/><g><path d=" M 568.882 1295.999 L 514.716 1310.583 L 460.549 1295.999 L 448.05 1160.583 L 581.383 1160.583 L 568.882 1295.999 Z " fill="rgb(32,98,175)"/><path d=" M 514.716 1171.552 L 514.716 1298.951 L 514.838 1298.984 L 558.673 1287.181 L 568.79 1171.552 L 514.716 1171.552 L 514.716 1171.552 Z " fill="rgb(60,156,215)"/><path d=" M 514.668 1205.411 L 475.899 1221.557 L 477.185 1237.543 L 514.668 1221.516 L 554.54 1204.469 L 556.193 1188.117 L 514.668 1205.411 Z " fill="rgb(255,255,255)"/><linearGradient id="_lgradient_0" x1="0.5" y1="1.0000123760844555" x2="0.5000000000000001" y2="0.00001237608445325833" gradientTransform="matrix(38.768,0,0,32.132,475.899,1205.411)" gradientUnits="userSpaceOnUse"><stop offset="38.7%" stop-opacity="0" style="stop-color:rgb(209,211,212)"/><stop offset="100%" stop-opacity="1" style="stop-color:rgb(209,211,212)"/></linearGradient><path d=" M 475.899 1221.557 L 477.185 1237.543 L 514.667 1221.516 L 514.667 1205.411 L 475.899 1221.557 L 475.899 1221.557 Z " fill="url(#_lgradient_0)"/><linearGradient id="_lgradient_1" x1="0.4999904234739807" y1="1.0000119063210646" x2="0.49999042347398076" y2="0.000011906321067289838" gradientTransform="matrix(41.525,0,0,33.4,514.668,1188.117)" gradientUnits="userSpaceOnUse"><stop offset="38.7%" stop-opacity="0" style="stop-color:rgb(209,211,212)"/><stop offset="100%" stop-opacity="1" style="stop-color:rgb(209,211,212)"/></linearGradient><path d=" M 556.193 1188.117 L 514.668 1205.411 L 514.668 1221.516 L 554.54 1204.469 L 556.193 1188.117 Z " fill="url(#_lgradient_1)"/><linearGradient id="_lgradient_2" x1="5.551115123125783e-16" y1="0.5000065584952196" x2="0.9999948470873167" y2="0.5000065584952196" gradientTransform="matrix(77.173,0,0,60.634,475.959,1221.557)" gradientUnits="userSpaceOnUse"><stop offset="0%" stop-opacity="1" style="stop-color:rgb(232,231,229)"/><stop offset="100%" stop-opacity="1" style="stop-color:rgb(255,255,255)"/></linearGradient><path d=" M 475.959 1221.557 L 477.245 1237.543 L 534.757 1237.726 L 533.471 1259.04 L 514.546 1264.368 L 496.353 1259.775 L 495.251 1246.545 L 478.347 1246.545 L 480.552 1272.085 L 514.729 1282.191 L 548.721 1272.269 L 553.132 1221.557 L 475.959 1221.557 L 475.959 1221.557 Z " fill="url(#_lgradient_2)"/><g opacity="0.05"><path d=" M 514.668 1221.557 L 475.899 1221.557 L 477.185 1237.543 L 514.668 1237.663 L 514.668 1221.557 Z  M 514.668 1264.317 L 514.484 1264.369 L 496.294 1259.775 L 495.192 1246.546 L 478.288 1246.546 L 480.493 1272.086 L 514.668 1282.191 L 514.668 1264.317 Z " fill="rgb(0,0,0)"/></g><linearGradient id="_lgradient_3" x1="2.220446049250313e-16" y1="0.5000000000000018" x2="0.9999952537353107" y2="0.5000000000000018" gradientTransform="matrix(83.785,0,0,16.353,472.408,1188.117)" gradientUnits="userSpaceOnUse"><stop offset="0%" stop-opacity="1" style="stop-color:rgb(232,231,229)"/><stop offset="100%" stop-opacity="1" style="stop-color:rgb(255,255,255)"/></linearGradient><path d=" M 472.408 1188.117 L 556.193 1188.117 L 554.54 1204.47 L 474.429 1204.47 L 472.408 1188.117 L 472.408 1188.117 Z " fill="url(#_lgradient_3)"/><g opacity="0.05"><path d=" M 514.668 1188.117 L 472.408 1188.117 L 474.429 1204.47 L 514.668 1204.47 L 514.668 1188.117 L 514.668 1188.117 Z " fill="rgb(0,0,0)"/></g></g></g></g></svg>